<?xml version="1.0" encoding="UTF-8"?>
<svg version="1.1" xmlns="http://www.w3.org/2000/svg" width="500" height="500">
<path d="M0 0 C1.08477631 -0.0159874 2.16955261 -0.03197479 3.28720093 -0.04844666 C4.45908966 -0.05380936 5.63097839 -0.05917206 6.83837891 -0.06469727 C8.6453978 -0.07823997 8.6453978 -0.07823997 10.48892212 -0.09205627 C13.03930164 -0.10657486 15.58971854 -0.11544948 18.14013672 -0.11914062 C22.04279322 -0.13103601 25.94386878 -0.18020935 29.84619141 -0.23071289 C32.32274618 -0.24017686 34.79931067 -0.24741202 37.27587891 -0.25219727 C39.02763931 -0.28149574 39.02763931 -0.28149574 40.81478882 -0.31138611 C48.90595469 -0.26631528 48.90595469 -0.26631528 52.90332031 2.65380859 C54.68994141 5.30639648 54.68994141 5.30639648 55.68994141 8.30639648 C56.34994141 8.30639648 57.00994141 8.30639648 57.68994141 8.30639648 C59.41650391 10.20483398 59.41650391 10.20483398 61.31494141 12.68139648 C61.94658203 13.49350586 62.57822266 14.30561523 63.22900391 15.14233398 C64.68994141 17.30639648 64.68994141 17.30639648 64.68994141 19.30639648 C65.34994141 19.30639648 66.00994141 19.30639648 66.68994141 19.30639648 C66.68994141 19.96639648 66.68994141 20.62639648 66.68994141 21.30639648 C67.34994141 21.30639648 68.00994141 21.30639648 68.68994141 21.30639648 C70.16259766 22.95092773 70.16259766 22.95092773 71.75244141 25.11889648 C72.27966797 25.8265918 72.80689453 26.53428711 73.35009766 27.26342773 C74.68994141 29.30639648 74.68994141 29.30639648 75.68994141 32.30639648 C76.34994141 32.30639648 77.00994141 32.30639648 77.68994141 32.30639648 C79.31103516 34.38842773 79.31103516 34.38842773 81.12744141 37.11889648 C84.02306718 41.54333994 84.02306718 41.54333994 87.68994141 45.30639648 C88.34994141 45.30639648 89.00994141 45.30639648 89.68994141 45.30639648 C91.27296191 43.56943087 92.78347865 41.76583152 94.25244141 39.93139648 C95.05810547 38.93366211 95.86376953 37.93592773 96.69384766 36.90795898 C98.67239236 34.49954247 98.67239236 34.49954247 99.68994141 32.30639648 C100.34994141 32.30639648 101.00994141 32.30639648 101.68994141 32.30639648 C101.91681641 31.79077148 102.14369141 31.27514648 102.37744141 30.74389648 C104.17211759 27.41092644 106.18959156 24.15935977 108.68994141 21.30639648 C109.34994141 21.30639648 110.00994141 21.30639648 110.68994141 21.30639648 C110.68994141 20.64639648 110.68994141 19.98639648 110.68994141 19.30639648 C111.34994141 19.30639648 112.00994141 19.30639648 112.68994141 19.30639648 C112.91681641 18.79077148 113.14369141 18.27514648 113.37744141 17.74389648 C115.17211759 14.41092644 117.18959156 11.15935977 119.68994141 8.30639648 C120.34994141 8.30639648 121.00994141 8.30639648 121.68994141 8.30639648 C122.06119141 7.16170898 122.06119141 7.16170898 122.43994141 5.99389648 C123.85917507 2.9425441 124.83418233 2.02083105 127.68994141 0.30639648 C130.22532654 -0.08128357 130.22532654 -0.08128357 133.11352539 -0.09765625 C134.19822617 -0.11034042 135.28292694 -0.1230246 136.40049744 -0.13609314 C137.56722488 -0.1331575 138.73395233 -0.13022186 139.93603516 -0.12719727 C141.74093163 -0.13506004 141.74093163 -0.13506004 143.58229065 -0.14308167 C146.12671131 -0.1495046 148.67116165 -0.14816141 151.21557617 -0.13964844 C155.10926195 -0.13114323 159.00147888 -0.15989151 162.89501953 -0.19165039 C165.3670243 -0.19326258 167.83903167 -0.19268454 170.31103516 -0.18969727 C172.05808998 -0.20654823 172.05808998 -0.20654823 173.84043884 -0.22373962 C181.90348512 -0.15420905 181.90348512 -0.15420905 185.91723633 2.1965332 C187.9125485 4.57134215 188.38837222 5.79970856 188.56494141 8.86889648 C188.62423828 9.63331055 188.68353516 10.39772461 188.74462891 11.18530273 C188.68994141 13.30639648 188.68994141 13.30639648 187.68994141 16.30639648 C187.02994141 16.30639648 186.36994141 16.30639648 185.68994141 16.30639648 C185.35994141 17.62639648 185.02994141 18.94639648 184.68994141 20.30639648 C184.02994141 20.30639648 183.36994141 20.30639648 182.68994141 20.30639648 C182.02994141 21.95639648 181.36994141 23.60639648 180.68994141 25.30639648 C180.02994141 25.30639648 179.36994141 25.30639648 178.68994141 25.30639648 C178.68994141 25.96639648 178.68994141 26.62639648 178.68994141 27.30639648 C178.02994141 27.30639648 177.36994141 27.30639648 176.68994141 27.30639648 C176.34962891 28.35827148 176.34962891 28.35827148 176.00244141 29.43139648 C174.35152853 33.04768184 172.3990579 35.39409625 169.68994141 38.30639648 C169.02994141 38.30639648 168.36994141 38.30639648 167.68994141 38.30639648 C167.44244141 39.02827148 167.19494141 39.75014648 166.93994141 40.49389648 C165.56724549 43.5824623 163.96640845 45.81651066 161.68994141 48.30639648 C161.02994141 48.30639648 160.36994141 48.30639648 159.68994141 48.30639648 C159.34962891 49.35827148 159.34962891 49.35827148 159.00244141 50.43139648 C157.35152853 54.04768184 155.3990579 56.39409625 152.68994141 59.30639648 C152.02994141 59.30639648 151.36994141 59.30639648 150.68994141 59.30639648 C150.02994141 60.95639648 149.36994141 62.60639648 148.68994141 64.30639648 C148.02994141 64.30639648 147.36994141 64.30639648 146.68994141 64.30639648 C146.41738525 64.89211426 146.1448291 65.47783203 145.86401367 66.08129883 C144.71381974 68.26114235 143.46116036 70.00294128 141.90478516 71.90795898 C141.37433594 72.56280273 140.84388672 73.21764648 140.29736328 73.89233398 C139.74628906 74.56522461 139.19521484 75.23811523 138.62744141 75.93139648 C137.53077538 77.27643635 136.43564808 78.6227327 135.34228516 79.97045898 C134.85751709 80.56294434 134.37274902 81.15542969 133.87329102 81.76586914 C132.60770703 83.3123651 132.60770703 83.3123651 131.68994141 85.30639648 C131.02994141 85.30639648 130.36994141 85.30639648 129.68994141 85.30639648 C129.43212891 85.86842773 129.17431641 86.43045898 128.90869141 87.00952148 C127.54824364 89.57344227 125.96205179 91.75866014 124.18994141 94.05639648 C123.58150391 94.85561523 122.97306641 95.65483398 122.34619141 96.47827148 C121.52634766 97.38319336 121.52634766 97.38319336 120.68994141 98.30639648 C120.02994141 98.30639648 119.36994141 98.30639648 118.68994141 98.30639648 C118.34962891 99.07983398 118.34962891 99.07983398 118.00244141 99.86889648 C116.20776523 103.20186653 114.19029125 106.4534332 111.68994141 109.30639648 C111.02994141 109.30639648 110.36994141 109.30639648 109.68994141 109.30639648 C109.68994141 109.96639648 109.68994141 110.62639648 109.68994141 111.30639648 C109.02994141 111.30639648 108.36994141 111.30639648 107.68994141 111.30639648 C107.68994141 111.96639648 107.68994141 112.62639648 107.68994141 113.30639648 C107.02994141 113.30639648 106.36994141 113.30639648 105.68994141 113.30639648 C105.68994141 113.96639648 105.68994141 114.62639648 105.68994141 115.30639648 C97.39230651 119.71131377 89.45990896 121.6478136 80.25244141 118.99389648 C77.26198376 117.98393962 74.48767791 116.76580801 71.68994141 115.30639648 C71.68994141 114.64639648 71.68994141 113.98639648 71.68994141 113.30639648 C71.02994141 113.30639648 70.36994141 113.30639648 69.68994141 113.30639648 C69.68994141 112.64639648 69.68994141 111.98639648 69.68994141 111.30639648 C69.02994141 111.30639648 68.36994141 111.30639648 67.68994141 111.30639648 C67.68994141 110.64639648 67.68994141 109.98639648 67.68994141 109.30639648 C67.02994141 109.30639648 66.36994141 109.30639648 65.68994141 109.30639648 C63.96337891 107.40795898 63.96337891 107.40795898 62.06494141 104.93139648 C61.43330078 104.11928711 60.80166016 103.30717773 60.15087891 102.47045898 C58.68994141 100.30639648 58.68994141 100.30639648 58.68994141 98.30639648 C58.02994141 98.30639648 57.36994141 98.30639648 56.68994141 98.30639648 C54.77978516 96.22436523 54.77978516 96.22436523 52.62744141 93.49389648 C51.91458984 92.60057617 51.20173828 91.70725586 50.46728516 90.78686523 C48.68994141 88.30639648 48.68994141 88.30639648 47.68994141 85.30639648 C47.02994141 85.30639648 46.36994141 85.30639648 45.68994141 85.30639648 C44.39662279 83.68900493 43.18037606 82.0096576 42.00244141 80.30639648 C38.88457399 75.88894265 35.6230417 71.81939033 31.93994141 67.86499023 C30.68994141 66.30639648 30.68994141 66.30639648 30.68994141 64.30639648 C30.02994141 64.30639648 29.36994141 64.30639648 28.68994141 64.30639648 C28.02994141 62.65639648 27.36994141 61.00639648 26.68994141 59.30639648 C26.02994141 59.30639648 25.36994141 59.30639648 24.68994141 59.30639648 C22.96337891 57.40795898 22.96337891 57.40795898 21.06494141 54.93139648 C20.43330078 54.11928711 19.80166016 53.30717773 19.15087891 52.47045898 C17.68994141 50.30639648 17.68994141 50.30639648 17.68994141 48.30639648 C17.02994141 48.30639648 16.36994141 48.30639648 15.68994141 48.30639648 C14.18212891 46.62670898 14.18212891 46.62670898 12.56494141 44.43139648 C12.02611328 43.71209961 11.48728516 42.99280273 10.93212891 42.25170898 C9.68994141 40.30639648 9.68994141 40.30639648 9.68994141 38.30639648 C8.20494141 37.81139648 8.20494141 37.81139648 6.68994141 37.30639648 C5.08447266 35.52905273 5.08447266 35.52905273 3.50244141 33.36889648 C2.97263672 32.65862305 2.44283203 31.94834961 1.89697266 31.21655273 C0.68994141 29.30639648 0.68994141 29.30639648 0.68994141 27.30639648 C0.02994141 27.30639648 -0.63005859 27.30639648 -1.31005859 27.30639648 C-1.31005859 26.64639648 -1.31005859 25.98639648 -1.31005859 25.30639648 C-1.97005859 25.30639648 -2.63005859 25.30639648 -3.31005859 25.30639648 C-3.97005859 23.65639648 -4.63005859 22.00639648 -5.31005859 20.30639648 C-5.97005859 20.30639648 -6.63005859 20.30639648 -7.31005859 20.30639648 C-7.64005859 18.98639648 -7.97005859 17.66639648 -8.31005859 16.30639648 C-8.97005859 16.30639648 -9.63005859 16.30639648 -10.31005859 16.30639648 C-11.7503919 8.34117976 -11.7503919 8.34117976 -10.06005859 4.36889648 C-6.92159094 0.66998818 -4.66766131 0.05198537 0 0 Z M-0.31005859 10.30639648 C1.04527401 12.84312937 1.04527401 12.84312937 2.68994141 15.30639648 C3.34994141 15.30639648 4.00994141 15.30639648 4.68994141 15.30639648 C4.93744141 15.84264648 5.18494141 16.37889648 5.43994141 16.93139648 C6.99646677 19.88879468 8.72429814 22.60363699 10.68994141 25.30639648 C11.34994141 25.30639648 12.00994141 25.30639648 12.68994141 25.30639648 C13.34994141 26.95639648 14.00994141 28.60639648 14.68994141 30.30639648 C15.34994141 30.30639648 16.00994141 30.30639648 16.68994141 30.30639648 C18.18994141 33.30639648 18.18994141 33.30639648 19.68994141 36.30639648 C20.34994141 36.30639648 21.00994141 36.30639648 21.68994141 36.30639648 C21.68994141 36.96639648 21.68994141 37.62639648 21.68994141 38.30639648 C22.34994141 38.30639648 23.00994141 38.30639648 23.68994141 38.30639648 C24.34994141 39.95639648 25.00994141 41.60639648 25.68994141 43.30639648 C26.34994141 43.30639648 27.00994141 43.30639648 27.68994141 43.30639648 C27.91681641 43.86327148 28.14369141 44.42014648 28.37744141 44.99389648 C32.6673525 52.55231127 40.57960703 57.66991008 48.68994141 60.30639648 C52.36949014 60.99564913 55.94988495 61.25195607 59.68994141 61.30639648 C60.44146484 61.31928711 61.19298828 61.33217773 61.96728516 61.34545898 C68.96666613 61.01637416 74.66228066 57.64149812 80.68994141 54.30639648 C80.02994141 53.97639648 79.36994141 53.64639648 78.68994141 53.30639648 C78.02327474 51.97306315 77.35660807 50.63972982 76.68994141 49.30639648 C75.87865163 48.0419783 75.04338031 46.79275666 74.18994141 45.55639648 C73.76712891 44.94280273 73.34431641 44.32920898 72.90869141 43.69702148 C72.30541016 43.00866211 72.30541016 43.00866211 71.68994141 42.30639648 C71.02994141 42.30639648 70.36994141 42.30639648 69.68994141 42.30639648 C69.29246704 41.43809204 69.29246704 41.43809204 68.88696289 40.55224609 C67.64198299 38.21641698 66.24378518 36.39293074 64.53759766 34.37280273 C63.9259375 33.64125977 63.31427734 32.9097168 62.68408203 32.15600586 C62.04664063 31.40125977 61.40919922 30.64651367 60.75244141 29.86889648 C57.05659884 25.48877787 53.54473747 21.29544903 50.68994141 16.30639648 C49.06247446 14.60143112 47.40102829 12.92742617 45.68994141 11.30639648 C45.19494141 10.81139648 45.19494141 10.81139648 44.68994141 10.30639648 C43.27769095 10.21352388 41.86085206 10.18892877 40.44555664 10.19287109 C39.09426918 10.19298439 39.09426918 10.19298439 37.71568298 10.19309998 C36.24694481 10.2008419 36.24694481 10.2008419 34.74853516 10.20874023 C33.75112808 10.21015518 32.75372101 10.21157013 31.72608948 10.21302795 C28.52651017 10.21864534 25.32699972 10.23120077 22.12744141 10.24389648 C19.96403096 10.24890924 17.80061941 10.25347254 15.63720703 10.25756836 C10.32142815 10.26862042 5.0056897 10.28537545 -0.31005859 10.30639648 Z M130.17431641 12.71240234 C129.68447266 13.56842041 129.19462891 14.42443848 128.68994141 15.30639648 C127.35923016 16.64234675 126.02586122 17.97565466 124.68994141 19.30639648 C123.24909959 20.99439 121.83261601 22.70344837 120.43994141 24.43139648 C119.38033203 25.73463867 119.38033203 25.73463867 118.29931641 27.06420898 C116.49557108 29.11719722 116.49557108 29.11719722 116.68994141 31.30639648 C116.02994141 31.30639648 115.36994141 31.30639648 114.68994141 31.30639648 C112.87365365 33.25015603 112.87365365 33.25015603 111.06494141 35.68139648 C110.43330078 36.49350586 109.80166016 37.30561523 109.15087891 38.14233398 C107.50343333 40.14749528 107.50343333 40.14749528 107.68994141 42.30639648 C107.02994141 42.30639648 106.36994141 42.30639648 105.68994141 42.30639648 C103.87365365 44.25015603 103.87365365 44.25015603 102.06494141 46.68139648 C101.43330078 47.49350586 100.80166016 48.30561523 100.15087891 49.14233398 C98.50343333 51.14749528 98.50343333 51.14749528 98.68994141 53.30639648 C98.02994141 53.30639648 97.36994141 53.30639648 96.68994141 53.30639648 C96.68994141 53.96639648 96.68994141 54.62639648 96.68994141 55.30639648 C96.02994141 55.30639648 95.36994141 55.30639648 94.68994141 55.30639648 C94.68994141 55.96639648 94.68994141 56.62639648 94.68994141 57.30639648 C94.02994141 57.30639648 93.36994141 57.30639648 92.68994141 57.30639648 C92.68994141 57.96639648 92.68994141 58.62639648 92.68994141 59.30639648 C92.02994141 59.53327148 91.36994141 59.76014648 90.68994141 59.99389648 C88.17240002 61.09532084 86.15872036 62.25004123 83.87744141 63.74389648 C75.1560475 69.30132606 66.46463869 70.49035903 56.25244141 70.36889648 C55.52089844 70.36438477 54.78935547 70.35987305 54.03564453 70.35522461 C52.25370722 70.34357796 50.47181278 70.3256484 48.68994141 70.30639648 C50.04527401 72.84312937 50.04527401 72.84312937 51.68994141 75.30639648 C52.34994141 75.30639648 53.00994141 75.30639648 53.68994141 75.30639648 C53.91681641 75.82202148 54.14369141 76.33764648 54.37744141 76.86889648 C56.17211759 80.20186653 58.18959156 83.4534332 60.68994141 86.30639648 C61.34994141 86.30639648 62.00994141 86.30639648 62.68994141 86.30639648 C62.93099609 86.85424805 63.17205078 87.40209961 63.42041016 87.96655273 C64.98721336 90.85429157 66.91155741 93.21023706 69.00244141 95.74389648 C70.14132813 97.13415039 70.14132813 97.13415039 71.30322266 98.55249023 C75.68549594 103.60895941 79.13946841 107.37347003 85.68994141 109.30639648 C91.49544143 109.45176112 95.90920543 108.73736631 100.68994141 105.30639648 C103.02812909 102.8193153 103.02812909 102.8193153 105.18994141 99.99389648 C106.34816406 98.53209961 106.34816406 98.53209961 107.52978516 97.04077148 C108.24263672 96.13842773 108.95548828 95.23608398 109.68994141 94.30639648 C110.70577179 93.11461396 111.72539349 91.92602571 112.75244141 90.74389648 C114.89735611 88.56441035 114.89735611 88.56441035 114.68994141 86.30639648 C115.34994141 86.30639648 116.00994141 86.30639648 116.68994141 86.30639648 C118.50622916 84.36263694 118.50622916 84.36263694 120.31494141 81.93139648 C120.94658203 81.11928711 121.57822266 80.30717773 122.22900391 79.47045898 C123.87644949 77.46529769 123.87644949 77.46529769 123.68994141 75.30639648 C124.34994141 75.30639648 125.00994141 75.30639648 125.68994141 75.30639648 C127.50622916 73.36263694 127.50622916 73.36263694 129.31494141 70.93139648 C130.26240234 69.71323242 130.26240234 69.71323242 131.22900391 68.47045898 C132.87644949 66.46529769 132.87644949 66.46529769 132.68994141 64.30639648 C133.34994141 64.30639648 134.00994141 64.30639648 134.68994141 64.30639648 C136.55995218 62.11284416 138.32426107 59.91155572 140.06494141 57.61889648 C141.03095428 56.3648878 141.99709792 55.11097983 142.96337891 53.85717773 C143.42454102 53.25212402 143.88570313 52.64707031 144.36083984 52.02368164 C145.55471494 50.48111783 146.79540887 48.97506108 148.04150391 47.47436523 C149.89169643 45.49497129 149.89169643 45.49497129 149.68994141 43.30639648 C150.34994141 43.30639648 151.00994141 43.30639648 151.68994141 43.30639648 C152.67994141 40.83139648 152.67994141 40.83139648 153.68994141 38.30639648 C154.34994141 38.30639648 155.00994141 38.30639648 155.68994141 38.30639648 C155.68994141 37.64639648 155.68994141 36.98639648 155.68994141 36.30639648 C156.34994141 36.30639648 157.00994141 36.30639648 157.68994141 36.30639648 C160.08814446 33.66954901 160.08814446 33.66954901 160.68994141 30.30639648 C161.34994141 30.30639648 162.00994141 30.30639648 162.68994141 30.30639648 C163.67994141 27.83139648 163.67994141 27.83139648 164.68994141 25.30639648 C165.34994141 25.30639648 166.00994141 25.30639648 166.68994141 25.30639648 C168.27820362 23.59141877 168.27820362 23.59141877 169.81494141 21.43139648 C170.35376953 20.71209961 170.89259766 19.99280273 171.44775391 19.25170898 C172.86933772 17.41013642 172.86933772 17.41013642 172.68994141 15.30639648 C173.34994141 15.30639648 174.00994141 15.30639648 174.68994141 15.30639648 C176.3346088 12.84312937 176.3346088 12.84312937 177.68994141 10.30639648 C171.3547095 10.17962976 165.01980447 10.09206017 158.68359375 10.03173828 C156.52819598 10.00659251 154.3728835 9.97247124 152.21777344 9.92919922 C149.11974048 9.86855141 146.0228346 9.84018736 142.92431641 9.81811523 C141.96064148 9.79230881 140.99696655 9.76650238 140.00408936 9.73991394 C134.51803773 9.63589496 134.51803773 9.63589496 130.17431641 12.71240234 Z " fill="#111111" transform="translate(161.31005859375,155.693603515625)"/>
<path d="M0 0 C3.17625 -0.0825 6.3525 -0.165 9.625 -0.25 C10.6145166 -0.28641602 11.6040332 -0.32283203 12.62353516 -0.36035156 C18.26535436 -0.43105963 21.59509938 0.12368746 26 4 C28.79927794 6.93510788 29.41226807 8.90633704 29.375 12.9375 C29.25351458 17.05585583 28.72160833 19.75500546 26 23 C25.34 23.33 24.68 23.66 24 24 C25.23035145 28.06962402 26.78976481 31.38325151 29 35 C29 35.66 29 36.32 29 37 C29.66 37 30.32 37 31 37 C32.45535805 32.71052364 33.87908543 28.41660315 35.20703125 24.0859375 C35.52667847 23.04663086 35.52667847 23.04663086 35.8527832 21.98632812 C36.27517278 20.60842353 36.69442769 19.22955299 37.11010742 17.84960938 C38.47089197 13.41737088 40.11719367 9.23761093 42 5 C42.67276716 3.3357865 43.34206835 1.67013418 44 0 C46.97 0 49.94 0 53 0 C60.21323249 18.14177377 60.21323249 18.14177377 62.37890625 25.95703125 C63.00595058 28.0195733 63.79546915 29.91417643 64.6875 31.875 C66 35 66 35 66 39 C62.7 39 59.4 39 56 39 C54.50178941 35.62902617 54 33.79557881 54 30 C50.37 30 46.74 30 43 30 C42.814375 31.3921875 42.814375 31.3921875 42.625 32.8125 C42 36 42 36 40 39 C33.90592453 40.6083176 26.0972529 40.51082373 20 39 C16.24054812 35.87817564 14.47298903 32.62740895 13 28 C13 27.34 13 26.68 13 26 C12.01 26 11.02 26 10 26 C10 30.29 10 34.58 10 39 C6.7 39 3.4 39 0 39 C0 26.13 0 13.26 0 0 Z M10 9 C10 11.97 10 14.94 10 18 C14.42664564 18.30495485 14.42664564 18.30495485 18.375 16.5 C19.179375 15.7575 19.179375 15.7575 20 15 C19.67 13.35 19.34 11.7 19 10 C16.03 9.67 13.06 9.34 10 9 Z M47 15 C46.67 17.31 46.34 19.62 46 22 C47.65 22 49.3 22 51 22 C50.34 19.69 49.68 17.38 49 15 C48.34 15 47.68 15 47 15 Z " fill="#1A1A1A" transform="translate(289,291)"/>
<path d="M0 0 C11 0 11 0 13.46484375 2.34375 C13.95082031 3.3853125 14.43679687 4.426875 14.9375 5.5 C15.44152344 6.5209375 15.94554687 7.541875 16.46484375 8.59375 C16.97144531 9.7178125 17.47804687 10.841875 18 12 C19.31667209 14.6750676 20.65739839 17.33786408 22 20 C22.02505615 19.42967041 22.0501123 18.85934082 22.07592773 18.27172852 C22.19156549 15.70173843 22.31443624 13.13214473 22.4375 10.5625 C22.47681641 9.66466797 22.51613281 8.76683594 22.55664062 7.84179688 C22.59853516 6.98779297 22.64042969 6.13378906 22.68359375 5.25390625 C22.72025146 4.46314697 22.75690918 3.6723877 22.79467773 2.85766602 C23 1 23 1 24 0 C26.97 0 29.94 0 33 0 C33 12.87 33 25.74 33 39 C29.04 39 25.08 39 21 39 C17.7 33.06 14.4 27.12 11 21 C10.67 26.94 10.34 32.88 10 39 C6.7 39 3.4 39 0 39 C0 26.13 0 13.26 0 0 Z " fill="#121212" transform="translate(147,291)"/>
<path d="M0 0 C2.9609375 1.41015625 2.9609375 1.41015625 5 3 C5 3.66 5 4.32 5 5 C5.66 5 6.32 5 7 5 C11.57439527 16.29303831 11.57439527 22.70696169 7 34 C6.34 34 5.68 34 5 34 C5 34.66 5 35.32 5 36 C-1.31712625 39.47964638 -5.93237318 40.78305759 -13 39 C-18.72931485 37.21545931 -21.14084492 35.27844015 -24 30 C-25.19104332 26.42687005 -25.20528823 23.45446678 -25.25 19.6875 C-25.27578125 18.39199219 -25.3015625 17.09648437 -25.328125 15.76171875 C-24.87270458 10.54064895 -22.93647554 6.37093483 -19.25 2.625 C-13.97164811 -1.69056238 -6.39717051 -0.91489467 0 0 Z M-10 8 C-10 8.66 -10 9.32 -10 10 C-10.66 10 -11.32 10 -12 10 C-15.11514878 13.71421585 -15.53147369 17.095989 -15.34375 21.7734375 C-14.78137666 25.41608297 -13.58771775 27.41228225 -11 30 C-7.41570054 30.56594202 -5.203827 30.80255133 -2.125 28.75 C0.44690553 24.74925807 0.24547263 20.66397995 0 16 C-0.99795517 12.62230557 -2.0738557 10.05913858 -5 8 C-7.62570704 7.74930087 -7.62570704 7.74930087 -10 8 Z " fill="#161616" transform="translate(275,291)"/>
<path d="M0 0 C8.91 0 17.82 0 27 0 C27 2.97 27 5.94 27 9 C21.39 9 15.78 9 10 9 C10 10.98 10 12.96 10 15 C14.62 15 19.24 15 24 15 C24 17.64 24 20.28 24 23 C19.38 23 14.76 23 10 23 C10 25.31 10 27.62 10 30 C15.61 30 21.22 30 27 30 C27 32.97 27 35.94 27 39 C18.09 39 9.18 39 0 39 C0 26.13 0 13.26 0 0 Z " fill="#171717" transform="translate(184,291)"/>
<path d="M0 0 C3.63 0 7.26 0 11 0 C12.98 3.63 14.96 7.26 17 11 C19.95749791 7.53258866 22.07848152 4.13126473 24 0 C27.63 0 31.26 0 35 0 C34.22404875 3.10380501 33.4731994 5.25002779 32 8 C31.34 8 30.68 8 30 8 C29.566875 9.3921875 29.566875 9.3921875 29.125 10.8125 C28 14 28 14 26 17 C25.34 17 24.68 17 24 17 C24 18.65 24 20.3 24 22 C24.66 22 25.32 22 26 22 C26.66 23.98 27.32 25.96 28 28 C28.66 28 29.32 28 30 28 C34.15178571 34.96428571 34.15178571 34.96428571 35 39 C31.17189265 39.6130421 27.79665393 39.88536511 24 39 C21.22178237 36.00645738 19.58421908 32.74330246 18 29 C15.47822271 31.38686739 13.95021527 33.09956947 12.375 36.25 C10 39 10 39 7.5234375 39.3828125 C4.98982274 39.37567556 2.51951701 39.25964488 0 39 C1.21934486 34.96678237 2.55954927 31.45730521 5 28 C5.66 28 6.32 28 7 28 C7.12375 27.443125 7.2475 26.88625 7.375 26.3125 C8 24 8 24 9.375 21.75 C10.29029265 19.0602435 10.29029265 19.0602435 9.015625 17.0078125 C8.10032036 15.60400257 7.15006207 14.22227781 6.1640625 12.8671875 C5 11 5 11 5 8 C4.34 8 3.68 8 3 8 C0 2.25 0 2.25 0 0 Z " fill="#1F1F1F" transform="translate(213,291)"/>
<path d="M0 0 C0.66 0.33 1.32 0.66 2 1 C2.77811718 4.81984796 3.24386556 7.26840331 2 11 C-0.39862525 12.71330375 -1.60918579 13.03812822 -4.5625 12.75 C-7 12 -7 12 -10 10 C-10.77902622 2.98876404 -10.77902622 2.98876404 -8.375 -0.0625 C-5.21609755 -1.30943518 -3.24681029 -0.84699399 0 0 Z M-7 3 C-7.16687448 5.41645782 -7.16687448 5.41645782 -7 8 C-6.34 8.66 -5.68 9.32 -5 10 C-2.89179203 9.6814823 -2.89179203 9.6814823 -1 9 C-0.67 7.35 -0.34 5.7 0 4 C-3.26085939 2.02948211 -3.26085939 2.02948211 -7 3 Z " fill="#525252" transform="translate(252,344)"/>
<path d="M0 0 C2.31 0.66 4.62 1.32 7 2 C7.125 6.75 7.125 6.75 6 9 C6.39938767 11.09821215 6.39938767 11.09821215 7 13 C6.4225 12.814375 5.845 12.62875 5.25 12.4375 C2.77511403 11.95627217 1.39014524 12.32212267 -1 13 C-1.02686553 11.02090602 -1.04633375 9.04171029 -1.0625 7.0625 C-1.07410156 5.96035156 -1.08570313 4.85820312 -1.09765625 3.72265625 C-1 1 -1 1 0 0 Z " fill="#5E5E5E" transform="translate(269,343)"/>
<path d="M0 0 C1.32 0 2.64 0 4 0 C4 0.66 4 1.32 4 2 C4.66 2 5.32 2 6 2 C6 2.66 6 3.32 6 4 C5.01 4.33 4.02 4.66 3 5 C3.495 5.4125 3.99 5.825 4.5 6.25 C6 8 6 8 6 12 C5.34 12 4.68 12 4 12 C4 12.66 4 13.32 4 14 C2.35 13.67 0.7 13.34 -1 13 C-1.33 11.68 -1.66 10.36 -2 9 C-1.01 9 -0.02 9 1 9 C0.67 8.67 0.34 8.34 0 8 C0 7.34 0 6.68 0 6 C-0.66 6 -1.32 6 -2 6 C-2 4.68 -2 3.36 -2 2 C-1.34 2 -0.68 2 0 2 C0 1.34 0 0.68 0 0 Z " fill="#676767" transform="translate(205,343)"/>
<path d="M0 0 C0 2.33333333 0 4.66666667 0 7 C-1.65 7 -3.3 7 -5 7 C-5 7.99 -5 8.98 -5 10 C-3.35 10 -1.7 10 0 10 C0 10.66 0 11.32 0 12 C-2.64 12 -5.28 12 -8 12 C-8 8.04 -8 4.08 -8 0 C-2.25 -1.125 -2.25 -1.125 0 0 Z " fill="#666666" transform="translate(297,344)"/>
<path d="M0 0 C1.65125885 0.00033989 1.65125885 0.00033989 3.33587646 0.00068665 C4.51828918 0.0161705 5.7007019 0.03165436 6.91894531 0.04760742 C8.13406799 0.05185226 9.34919067 0.05609711 10.60113525 0.06047058 C14.4833387 0.07726741 18.36502367 0.11492279 22.24707031 0.15307617 C24.87857323 0.16812165 27.51008429 0.18181029 30.14160156 0.1940918 C36.59360148 0.22717432 43.04529885 0.27738439 49.49707031 0.34057617 C49.49707031 0.67057617 49.49707031 1.00057617 49.49707031 1.34057617 C48.83609848 1.33978058 48.17512665 1.33898499 47.49412537 1.33816528 C40.59904487 1.33572283 33.70508712 1.37499766 26.81030273 1.43823242 C24.23906676 1.4563728 21.66773343 1.46396452 19.09643555 1.46069336 C15.39458166 1.45783092 11.69473903 1.49320684 7.99316406 1.53588867 C6.84810898 1.52679474 5.70305389 1.51770081 4.52330017 1.5083313 C-2.01001584 1.62663784 -5.76170325 2.29724106 -10.41099548 7.05636597 C-10.77133377 7.48015533 -11.13167206 7.9039447 -11.50292969 8.34057617 C-9.45870433 2.037548 -6.60691928 -0.04546045 0 0 Z " fill="#434343" transform="translate(294.5029296875,155.659423828125)"/>
<path d="M0 0 C-0.66 3.96 -1.32 7.92 -2 12 C-2.99 12 -3.98 12 -5 12 C-5 9.03 -5 6.06 -5 3 C-5.99 2.67 -6.98 2.34 -8 2 C-8 1.34 -8 0.68 -8 0 C-2.25 -1.125 -2.25 -1.125 0 0 Z " fill="#4C4C4C" transform="translate(230,344)"/>
<path d="M0 0 C0 2 0 4 0 6 C-2.31 6.33 -4.62 6.66 -7 7 C-7 4.69 -7 2.38 -7 0 C-2.25 -1.125 -2.25 -1.125 0 0 Z " fill="#2C2C2C" transform="translate(297,344)"/>
<path d="M0 0 C1.2065625 0.0309375 1.2065625 0.0309375 2.4375 0.0625 C2.4375 0.7225 2.4375 1.3825 2.4375 2.0625 C0.4575 3.0525 0.4575 3.0525 -1.5625 4.0625 C-0.9025 4.7225 -0.2425 5.3825 0.4375 6.0625 C-0.8825 7.7125 -2.2025 9.3625 -3.5625 11.0625 C-3.58938151 9.41675434 -3.60884123 7.77088587 -3.625 6.125 C-3.63660156 5.20847656 -3.64820313 4.29195313 -3.66015625 3.34765625 C-3.52086326 0.08820018 -3.27895972 0.07997463 0 0 Z " fill="#131313" transform="translate(272.5625,343.9375)"/>
<path d="M0 0 C1.1446875 0.2475 1.1446875 0.2475 2.3125 0.5 C5.03596236 1.09145396 5.03596236 1.09145396 8 1 C8.33 1.66 8.66 2.32 9 3 C6.42786866 4.61949011 5.32330841 5.04408751 2.25 4.625 C1.5075 4.41875 0.765 4.2125 0 4 C0 2.68 0 1.36 0 0 Z " fill="#7E7E7E" transform="translate(245,352)"/>
<path d="M0 0 C0.33 2.31 0.66 4.62 1 7 C0.01 7.66 -0.98 8.32 -2 9 C-2.185625 7.576875 -2.185625 7.576875 -2.375 6.125 C-2.71687177 2.91332809 -2.71687177 2.91332809 -5 1 C-2 0 -2 0 0 0 Z " fill="#5E5E5E" transform="translate(254,345)"/>
<path d="M0 0 C1.32 0 2.64 0 4 0 C4 0.66 4 1.32 4 2 C4.66 2 5.32 2 6 2 C6 2.66 6 3.32 6 4 C5.05125 3.95875 4.1025 3.9175 3.125 3.875 C-0.10244856 3.65026182 -0.10244856 3.65026182 -2 6 C-2 4.68 -2 3.36 -2 2 C-1.34 2 -0.68 2 0 2 C0 1.34 0 0.68 0 0 Z " fill="#7C7C7C" transform="translate(205,343)"/>
<path d="M0 0 C0 1.65 0 3.3 0 5 C-1.98 5.99 -1.98 5.99 -4 7 C-4 6.34 -4 5.68 -4 5 C-4.66 4.34 -5.32 3.68 -6 3 C-1.125 0 -1.125 0 0 0 Z " fill="#6E6E6E" transform="translate(276,345)"/>
<path d="M0 0 C1.65 1.65 3.3 3.3 5 5 C4.34 5 3.68 5 3 5 C2.67 5.66 2.34 6.32 2 7 C2 6.34 2 5.68 2 5 C1.34 5 0.68 5 0 5 C-0.5625 3.0625 -0.5625 3.0625 -1 1 C-0.67 0.67 -0.34 0.34 0 0 Z " fill="#383838" transform="translate(205,346)"/>
<path d="M0 0 C2.97 0.495 2.97 0.495 6 1 C6 1.66 6 2.32 6 3 C1.25 4.125 1.25 4.125 -1 3 C-0.67 2.01 -0.34 1.02 0 0 Z " fill="#434343" transform="translate(246,343)"/>
</svg>
